<?xml version="1.0" standalone="no"?>
<!DOCTYPE svg PUBLIC "-//W3C//DTD SVG 20010904//EN"
 "http://www.w3.org/TR/2001/REC-SVG-20010904/DTD/svg10.dtd">
<svg version="1.0" xmlns="http://www.w3.org/2000/svg"
 width="622.000000pt" height="401.000000pt" viewBox="0 0 622.000000 401.000000"
 preserveAspectRatio="xMidYMid meet">

<g transform="translate(0.000000,401.000000) scale(0.100000,-0.100000)"
fill="#000000" stroke="none">
<path d="M2923 3939 c-445 -52 -881 -279 -1175 -614 -245 -279 -399 -609 -453
-972 -19 -131 -19 -398 0 -534 122 -872 846 -1543 1725 -1598 332 -21 637 39
935 183 793 383 1209 1265 1001 2121 -186 764 -824 1325 -1611 1415 -104 11
-318 11 -422 -1z m462 -144 c563 -80 1054 -435 1303 -941 135 -273 190 -529
179 -834 -7 -211 -42 -383 -114 -565 -180 -457 -538 -811 -999 -989 -164 -64
-297 -92 -489 -105 -394 -28 -758 69 -1091 290 -150 100 -362 311 -463 463
-79 120 -125 205 -172 323 -225 565 -144 1194 218 1681 81 109 272 295 383
374 219 155 481 261 749 303 116 18 373 18 496 0z"/>
<path d="M3070 3183 c-19 -9 -75 -35 -125 -58 -49 -23 -169 -89 -265 -147 -96
-58 -206 -121 -245 -140 -71 -36 -179 -68 -229 -68 -32 0 -75 -40 -77 -72 -12
-199 64 -656 151 -903 66 -186 188 -410 299 -550 150 -188 476 -445 564 -445
26 0 63 19 153 79 281 187 470 401 614 696 134 275 209 576 242 976 12 144 11
150 -8 176 -22 29 -56 43 -158 62 -76 14 -207 78 -371 181 -233 147 -405 231
-474 229 -20 0 -52 -8 -71 -16z m540 -695 c65 -45 79 -72 59 -110 -31 -59
-494 -736 -520 -760 -33 -31 -57 -35 -97 -14 -15 8 -111 99 -214 203 -223 224
-219 216 -128 305 86 84 89 84 236 -63 l121 -121 45 64 c24 34 113 165 197
291 84 125 163 234 174 242 29 21 53 13 127 -37z"/>
</g>
</svg>
